<?xml version="1.0" encoding="UTF-8" standalone="no"?>
<!-- Created with Inkscape (http://www.inkscape.org/) -->

<svg
   xmlns:dc="http://purl.org/dc/elements/1.1/"
   xmlns:cc="http://creativecommons.org/ns#"
   xmlns:rdf="http://www.w3.org/1999/02/22-rdf-syntax-ns#"
   xmlns:svg="http://www.w3.org/2000/svg"
   xmlns="http://www.w3.org/2000/svg"
   xmlns:sodipodi="http://sodipodi.sourceforge.net/DTD/sodipodi-0.dtd"
   xmlns:inkscape="http://www.inkscape.org/namespaces/inkscape"
   id="svg2"
   version="1.1"
   inkscape:version="0.91 r13725"
   width="512"
   height="512"
   viewBox="0 0 512 512"
   sodipodi:docname="clipboard.svg">
  <metadata
     id="metadata8">
    <rdf:RDF>
      <cc:Work
         rdf:about="">
        <dc:format>image/svg+xml</dc:format>
        <dc:type
           rdf:resource="http://purl.org/dc/dcmitype/StillImage" />
        <dc:title></dc:title>
      </cc:Work>
    </rdf:RDF>
  </metadata>
  <defs
     id="defs6" />
  <sodipodi:namedview
     pagecolor="#ffffff"
     bordercolor="#666666"
     borderopacity="1"
     objecttolerance="10"
     gridtolerance="10"
     guidetolerance="10"
     inkscape:pageopacity="0"
     inkscape:pageshadow="2"
     inkscape:window-width="1440"
     inkscape:window-height="897"
     id="namedview4"
     showgrid="false"
     inkscape:zoom="0.4609375"
     inkscape:cx="256"
     inkscape:cy="169.22034"
     inkscape:window-x="-8"
     inkscape:window-y="-8"
     inkscape:window-maximized="1"
     inkscape:current-layer="svg2" />
  <path
     style="fill:#31838f;fill-opacity:1"
     d="m 97.232906,510.88886 c -7.71892,-1.28573 -16.00134,-5.89229 -22.00097,-12.23661 -5.81975,-6.15411 -8.54186,-11.57259 -10.21757,-20.3385 C 64.216426,474.13961 63.987176,417.64653 64.201496,278 l 0.29851,-194.499997 2.46117,-5.93915 c 3.16548,-7.63876 12.08993,-17.28303 19.22031,-20.77056 7.98781,-3.9069 15.088124,-4.79029 38.502184,-4.79029 l 21.31634,0 -7.7e-4,11.75 -7.6e-4,11.75 -23.24924,0.0485 c -19.79794,0.0413 -23.718584,0.29813 -26.410944,1.73002 -4.08433,2.17218 -7.0732,6.02326 -8.34745,10.75546 -0.67567,2.50925 -0.928,68.195337 -0.75339,196.119447 0.2477,181.46575 0.36216,192.52878 2.0234,195.56787 0.96847,1.77173 3.43543,4.35923 5.48213,5.75 l 3.72129,2.52868 157.619984,0 157.61998,0 3.34382,-2.2534 c 1.8391,-1.23937 4.26815,-3.82687 5.39788,-5.75 2.04973,-3.48921 2.0547,-3.89805 2.35216,-193.4966 0.16394,-104.5 0.0219,-192.339797 -0.31565,-195.199537 -0.72403,-6.13386 -3.66636,-10.91973 -8.42038,-13.69623 -3.15959,-1.8453 -5.27631,-2.00787 -26.74439,-2.05406 l -23.31323,-0.0502 -0.002,-11.75 -0.002,-11.75 21.31634,0 c 11.72399,0 23.98649,0.49251 27.25,1.09448 16.47336,3.03856 29.3388,15.90064 32.3476,32.33917 1.5294,8.35599 1.5273,384.812127 0,393.086087 -3.0985,16.76149 -16.47818,29.71272 -33.59095,32.51538 -7.39584,1.21125 -308.77518,1.07181 -316.087874,-0.14626 z m 32.841154,-91.29963 c -0.64396,-0.77592 -1.42757,-2.99286 -1.74136,-4.92653 -0.46802,-2.88407 -0.10814,-3.97816 2.00293,-6.08923 L 132.9091,406 l 123.09091,0 123.09091,0 2.45454,2.45455 c 2.83123,2.83122 3.19729,7.04002 0.89785,10.32294 L 380.8866,421 256.06575,421 c -106.22312,0 -124.9953,-0.2102 -125.99169,-1.41077 z m 38.42595,-48.69618 c -8.35381,-1.20045 -19.14249,-6.77363 -25.80443,-13.32998 -23.08298,-22.71711 -16.67626,-61.68862 12.48941,-75.97194 23.66941,-11.59163 51.6944,-1.95559 63.31016,21.7684 6.57066,13.41992 6.54048,27.92407 -0.0863,41.45549 -9.16578,18.71597 -29.00456,29.08199 -49.90887,26.07803 z m 2.65297,-17.18815 c 1.60351,-0.72827 5.48615,-5.46218 9.81511,-11.96709 3.93917,-5.9192 11.63284,-15.46306 17.09703,-21.20858 10.56651,-11.11053 11.36812,-12.85699 8.47188,-18.45771 C 204.83779,298.78563 203.22313,298 198.169,298 c -3.28206,0 -4.51688,0.87466 -11.75129,8.32378 -4.44612,4.57808 -10.44333,11.44058 -13.32714,15.25 -2.8838,3.80942 -5.62582,6.92622 -6.09338,6.92622 -0.46755,0 -3.81489,-3.93061 -7.43853,-8.73469 -4.18395,-5.54691 -7.4954,-8.96231 -9.07355,-9.35841 -5.98147,-1.50125 -11.50421,2.61162 -11.45625,8.53166 0.024,2.96052 1.92376,6.08819 11.25928,18.53653 10.09373,13.45938 14.13345,17.55853 17.21187,17.46506 0.55,-0.0167 2.19384,-0.57256 3.65297,-1.23525 z m 104.40373,9.07259 c -2.29944,-3.28292 -1.93338,-7.49172 0.89785,-10.32294 L 278.9091,350 l 50.09091,0 50.09091,0 2.57347,2.57347 c 2.11107,2.11107 2.47095,3.20516 2.00293,6.08923 -1.09213,6.72998 2.29935,6.3373 -54.73305,6.3373 l -51.82085,0 -1.55671,-2.22251 z m -30,-56 c -2.29944,-3.28292 -1.93338,-7.49172 0.89785,-10.32294 L 248.9091,294 l 65.09091,0 65.09091,0 2.57347,2.57347 c 2.11107,2.11107 2.47095,3.20516 2.00293,6.08923 -1.10088,6.78395 3.81382,6.3373 -69.73305,6.3373 l -66.82085,0 -1.55671,-2.22251 z m 30,-56 c -2.29944,-3.28292 -1.93338,-7.49172 0.89785,-10.32294 L 278.9091,238 l 50.09091,0 50.09091,0 2.57347,2.57347 c 2.11107,2.11107 2.47095,3.20516 2.00293,6.08923 -1.09213,6.72998 2.29935,6.3373 -54.73305,6.3373 l -51.82085,0 -1.55671,-2.22251 z m -107.0567,0.11556 c -8.35381,-1.20045 -19.14249,-6.77363 -25.80443,-13.32998 -23.08298,-22.71711 -16.67626,-61.68862 12.48941,-75.97194 23.66941,-11.59163 51.6944,-1.95559 63.31016,21.7684 6.57066,13.41992 6.54048,27.92407 -0.0863,41.45549 -9.16578,18.71597 -29.00456,29.08199 -49.90887,26.07803 z m 2.65297,-17.18815 c 1.60351,-0.72827 5.48615,-5.46218 9.81511,-11.96709 3.93917,-5.9192 11.63284,-15.46306 17.09703,-21.20858 10.56651,-11.11053 11.36812,-12.85699 8.47188,-18.45771 C 204.83779,178.78563 203.22313,178 198.169,178 c -3.28206,0 -4.51688,0.87466 -11.75129,8.32378 -4.44612,4.57808 -10.44333,11.44058 -13.32714,15.25 -2.8838,3.80942 -5.62582,6.92622 -6.09338,6.92622 -0.46755,0 -3.81489,-3.93061 -7.43853,-8.73469 -4.18395,-5.54691 -7.4954,-8.96231 -9.07355,-9.35841 -5.98147,-1.50125 -11.50421,2.61162 -11.45625,8.53166 0.024,2.96052 1.92376,6.08819 11.25928,18.53653 10.09373,13.45938 14.13345,17.55853 17.21187,17.46506 0.55,-0.0167 2.19384,-0.57256 3.65297,-1.23525 z m 77.1624,-34.71188 c -4.22449,-1.70208 -5.62509,-7.67811 -2.75867,-11.77051 L 247.11342,185 l 66.88659,0 66.88659,0 1.55671,2.22251 c 2.29944,3.28292 1.93338,7.49172 -0.89785,10.32294 L 379.09092,200 314.79546,199.9366 c -35.3625,-0.0349 -65.27853,-0.45948 -66.48008,-0.94359 z m -75.96094,-97.67665 c -1.18006,-0.23546 -2.98006,-1.350207 -4,-2.477227 -1.70126,-1.87986 -1.85443,-4.10313 -1.85443,-26.91635 0,-24.5363 0.0303,-24.89755 2.27535,-27.14501 2.19361,-2.19595 3.05575,-2.29574 23.99746,-2.77778 l 21.7221,-0.5 0.69746,-5.59694 c 2.17654,-17.46607 17.00128,-32.2404203 34.89054,-34.7719603 16.48773,-2.33321 31.73665,4.78626 41.02201,19.1525203 3.37028,5.21448 4.30729,8.01884 6.48581,19.41131 0.41442,2.16718 0.69117,2.19879 21.88885,2.5 28.66312,0.40729 26.02042,-2.61978 26.02042,29.80507 0,24.62418 -0.0292,24.97368 -2.27751,27.22222 L 340.94498,101.5 257.7225,101.62223 c -45.77237,0.0672 -84.188,-0.0704 -85.36806,-0.30586 z m 94.58378,-44.161247 c 5.31246,-3.87549 6.56179,-6.76094 6.56179,-15.15512 0,-6.3722 -0.38885,-8.37417 -2.06179,-10.61488 -3.77128,-5.05122 -7.04507,-6.7653 -13.73491,-7.19128 -7.85349,-0.50007 -12.44788,1.29366 -16.32148,6.37221 -2.60318,3.41295 -2.88182,4.52803 -2.88182,11.53278 0,8.36076 1.22402,11.11276 6.79146,15.26945 5.10719,3.81307 16.27845,3.70307 21.64675,-0.21316 z"
     id="path4138"
     inkscape:connector-curvature="0" />
</svg>
